<svg width="128" height="128" viewBox="0 0 128 128" fill="none" xmlns="http://www.w3.org/2000/svg">
<rect width="128" height="128" rx="24" fill="#07101F"/>
<path d="M20 36H74C67.8 39.3 63.5 43.6 61.1 49H37.1L34.9 57.2H58.6C58 60.1 58 63 58.6 65.8H32.5L24.3 96L13.3 82.7L25.9 42.4L20 36Z" fill="url(#silver)"/>
<path d="M53.5 49C56.2 40.8 64.6 36 76.4 36H91.3C104.7 36 112.2 42.6 110.3 53.3C109.3 58.5 106.2 62.7 101.8 65.1C107.2 67.2 109.6 72.2 108.4 78.2C106.5 89 96.8 96 82.8 96H29.8L39.3 83.1H83.6C88.5 83.1 91.7 80.8 92.4 76.9C93.1 73.1 90.7 70.9 85.8 70.9H39.4L42.8 58H88.8C93.2 58 96.1 55.9 96.8 52.4C97.4 48.9 95.2 46.9 90.8 46.9H58.8L53.5 49Z" fill="url(#cyan)" filter="url(#glow)"/>
<path d="M30 102C49.7 87.7 75.8 84 103.4 86.1C77.2 94 53.8 101.3 30 102Z" fill="url(#swoosh)"/>
<path d="M102 28H109V35H102V28ZM114 35H121V42H114V35ZM95 43H101V49H95V43ZM108 49H114V55H108V49ZM118 58H124V64H118V58ZM101 61H106V66H101V61ZM112 70H117V75H112V70Z" fill="#20E6FF" filter="url(#glow)"/>
<defs>
<linearGradient id="silver" x1="15" x2="63" y1="34" y2="89" gradientUnits="userSpaceOnUse"><stop stop-color="#fff"/><stop offset=".52" stop-color="#B7D7F5"/><stop offset="1" stop-color="#55789D"/></linearGradient>
<linearGradient id="cyan" x1="52" x2="111" y1="36" y2="92" gradientUnits="userSpaceOnUse"><stop stop-color="#72F7FF"/><stop offset=".5" stop-color="#15C9F4"/><stop offset="1" stop-color="#0275C7"/></linearGradient>
<linearGradient id="swoosh" x1="27" x2="111" y1="98" y2="76" gradientUnits="userSpaceOnUse"><stop stop-color="#F8FBFF"/><stop offset=".55" stop-color="#18D8FF"/><stop offset="1" stop-color="#0063C7"/></linearGradient>
<filter id="glow" x="-20%" y="-20%" width="140%" height="140%" color-interpolation-filters="sRGB"><feGaussianBlur stdDeviation="4" result="blur"/><feColorMatrix in="blur" type="matrix" values="0 0 0 0 0.02 0 0 0 0 0.75 0 0 0 0 1 0 0 0 0.48 0"/><feBlend in="SourceGraphic"/></filter>
</defs>
</svg>
